<svg width="120" height="34" viewBox="0 0 120 34" fill="none" xmlns="http://www.w3.org/2000/svg">
<path d="M108.664 27V23.64H112.024V27H108.664Z" fill="#252525"/>
<path d="M90.1016 19.972C90.1016 15.464 93.2656 12.58 98.0816 12.58C102.926 12.58 106.09 15.66 106.09 19.972C106.09 24.312 102.926 27.448 98.0816 27.448C93.2656 27.448 90.1016 24.48 90.1016 19.972ZM93.7416 19.972C93.7416 22.268 95.0016 24.144 98.0816 24.144C101.19 24.144 102.45 22.268 102.45 19.972C102.45 17.676 101.19 15.884 98.0816 15.884C94.9736 15.884 93.7416 17.676 93.7416 19.972Z" fill="#252525"/>
<path d="M81.1797 23.612V6.7H84.6237V22.296C84.6237 23.444 85.0997 23.808 86.3877 23.808H88.1237V27H86.0517C82.8597 27 81.1797 25.796 81.1797 23.612Z" fill="#252525"/>
<path d="M66.4062 6.7V14.092C66.4062 14.932 65.9302 15.912 65.6502 16.724L66.2662 16.92C66.5182 16.136 66.6862 14.988 67.2742 14.372C68.2822 13.308 69.7102 12.58 71.5862 12.58C75.5902 12.58 78.5022 16.024 78.5862 20.056C78.6982 24.2 75.7582 27.448 71.5582 27.448C69.7102 27.448 68.2822 26.804 67.2462 25.712C66.6582 25.124 66.5182 23.976 66.2662 23.164L65.6782 23.36C65.9302 24.172 66.4062 25.152 66.4062 25.992V27L62.9902 26.972V6.672L66.4062 6.7ZM71.1102 24.228C73.7142 24.228 75.1702 22.464 75.1702 20.112C75.1702 17.732 73.7142 15.772 71.1102 15.772C68.5062 15.772 67.0502 17.732 67.0502 20.112C67.0502 22.464 68.5062 24.228 71.1102 24.228Z" fill="#252525"/>
<path d="M52.8669 27.448C47.1829 27.448 44.1309 24.088 44.1309 19.916C44.1309 15.744 47.4629 12.58 52.1949 12.58C57.0669 12.58 60.0909 15.996 60.0629 19.86C60.0629 20.14 60.0629 20.812 60.0349 21.064L48.2469 21.036C48.2469 22.576 49.6469 24.508 52.5309 24.508C54.4069 24.508 55.5549 23.696 55.8349 22.996H59.7549C59.3349 24.452 57.2629 27.448 52.8669 27.448ZM48.2469 18.74H56.0589C56.0589 16.808 54.6309 15.296 52.2789 15.296C49.8989 15.296 48.2469 16.976 48.2469 18.74Z" fill="#252525"/>
<path d="M29.4066 12.692L25.9066 27H21.6786L16.8066 7.39999H20.3626L23.3306 20.028C23.5826 21.008 23.4146 22.38 23.3866 23.388L24.0026 23.416C24.0306 22.38 23.9186 21.036 24.1706 20.028L27.7266 7.39999H31.9266L35.5386 20.028C35.7906 21.036 35.6786 22.38 35.7066 23.416L36.3506 23.388C36.3226 22.38 36.1546 21.008 36.3786 20.028L39.3466 7.39999H42.9026L38.0586 27H33.8026L30.2746 12.692C30.0226 11.628 30.1626 10.2 30.1626 9.10799H29.5186C29.5186 10.2 29.6586 11.628 29.4066 12.692Z" fill="#252525"/>
<path d="M7.00391 6.98H10.5039L15.4879 27H11.9879L7.00391 6.98Z" fill="#252525"/>
</svg>
